<?xml version="1.0" encoding="UTF-8" standalone="no"?>
<!-- Created with Inkscape (http://www.inkscape.org/) -->

<svg
   xmlns:dc="http://purl.org/dc/elements/1.1/"
   xmlns:cc="http://creativecommons.org/ns#"
   xmlns:rdf="http://www.w3.org/1999/02/22-rdf-syntax-ns#"
   xmlns:svg="http://www.w3.org/2000/svg"
   xmlns="http://www.w3.org/2000/svg"
   xmlns:sodipodi="http://sodipodi.sourceforge.net/DTD/sodipodi-0.dtd"
   xmlns:inkscape="http://www.inkscape.org/namespaces/inkscape"
   width="744.09448819"
   height="1052.3622047"
   id="svg2"
   version="1.1"
   inkscape:version="0.48.2 r9819"
   sodipodi:docname="New document 1">
  <defs
     id="defs4">
    <marker
       inkscape:stockid="Arrow2Mstart"
       orient="auto"
       refY="0.0"
       refX="0.0"
       id="Arrow2Mstart"
       style="overflow:visible">
      <path
         id="path3791"
         style="font-size:12.0;fill-rule:evenodd;stroke-width:0.62500000;stroke-linejoin:round"
         d="M 8.7185878,4.0337352 L -2.2072895,0.016013256 L 8.7185884,-4.0017078 C 6.9730900,-1.6296469 6.9831476,1.6157441 8.7185878,4.0337352 z "
         transform="scale(0.6) translate(0,0)" />
    </marker>
    <marker
       inkscape:stockid="Arrow2Mend"
       orient="auto"
       refY="0.0"
       refX="0.0"
       id="Arrow2Mend"
       style="overflow:visible;">
      <path
         id="path3794"
         style="font-size:12.0;fill-rule:evenodd;stroke-width:0.62500000;stroke-linejoin:round;"
         d="M 8.7185878,4.0337352 L -2.2072895,0.016013256 L 8.7185884,-4.0017078 C 6.9730900,-1.6296469 6.9831476,1.6157441 8.7185878,4.0337352 z "
         transform="scale(0.6) rotate(180) translate(0,0)" />
    </marker>
  </defs>
  <sodipodi:namedview
     id="base"
     pagecolor="#ffffff"
     bordercolor="#666666"
     borderopacity="1.0"
     inkscape:pageopacity="0.0"
     inkscape:pageshadow="2"
     inkscape:zoom="0.44055556"
     inkscape:cx="740"
     inkscape:cy="780"
     inkscape:document-units="px"
     inkscape:current-layer="layer1"
     showgrid="false"
     inkscape:window-width="1280"
     inkscape:window-height="752"
     inkscape:window-x="0"
     inkscape:window-y="0"
     inkscape:window-maximized="1">
    <inkscape:grid
       type="xygrid"
       id="grid2985" />
  </sodipodi:namedview>
  <metadata
     id="metadata7">
    <rdf:RDF>
      <cc:Work
         rdf:about="">
        <dc:format>image/svg+xml</dc:format>
        <dc:type
           rdf:resource="http://purl.org/dc/dcmitype/StillImage" />
        <dc:title></dc:title>
      </cc:Work>
    </rdf:RDF>
  </metadata>
  <g
     inkscape:label="Layer 1"
     inkscape:groupmode="layer"
     id="layer1">
    <rect
       style="fill:#ffffff;stroke:none;stroke-width:3;stroke-miterlimit:4;stroke-opacity:1;stroke-dasharray:12, 6;stroke-dashoffset:0"
       id="rect5990"
       width="1800"
       height="600"
       x="-160"
       y="-27.637817"
       ry="0.017677668" />
    <g
       id="g5992"
       transform="translate(-10.181519,-31.360352)">
      <rect
         ry="0.017677668"
         y="241.63675"
         x="40"
         height="100"
         width="120"
         id="rect2987"
         style="fill:none;stroke:#000000;stroke-width:4;stroke-miterlimit:4;stroke-dasharray:none" />
      <path
         sodipodi:nodetypes="cssssssscsssc"
         inkscape:connector-curvature="0"
         id="rect3757"
         d="m 330.03536,232.36218 119.96464,0 c 0.01,0 0.0177,0.008 0.0177,0.0177 l 0,99.96464 c 0,0.01 -0.008,0.0177 -0.0177,0.0177 l -119.96464,0 c -0.005,0 -0.009,-0.002 -0.0126,-0.005 -0.003,-0.003 -0.005,-0.008 -0.005,-0.0125 l -30.00008,-49.98254 30.00008,-49.9821 c 0.003,-0.004 0.002,-0.009 0.005,-0.0126 0.003,-0.003 0.008,-0.005 0.0125,-0.005 z"
         style="fill:none;stroke:#000000;stroke-width:5;stroke-miterlimit:4" />
      <path
         sodipodi:nodetypes="cc"
         inkscape:connector-curvature="0"
         id="path3762"
         d="m 170,282.36218 120,0"
         style="fill:none;stroke:#000000;stroke-width:4;stroke-linecap:butt;stroke-linejoin:miter;stroke-miterlimit:4;stroke-opacity:1;stroke-dasharray:none;marker-end:url(#Arrow2Mend)" />
      <path
         style="fill:none;stroke:#000000;stroke-width:4;stroke-linecap:butt;stroke-linejoin:miter;stroke-miterlimit:4;stroke-opacity:1;stroke-dasharray:none;marker-end:url(#Arrow2Mend)"
         d="m 220,482.36218 -130,0 0,-130"
         id="path4208"
         inkscape:connector-curvature="0"
         sodipodi:nodetypes="ccc" />
      <path
         style="fill:none;stroke:#000000;stroke-width:4;stroke-linecap:butt;stroke-linejoin:miter;stroke-miterlimit:4;stroke-opacity:1;stroke-dasharray:none;marker-end:url(#Arrow2Mend)"
         d="m -40,282.36218 70,0"
         id="path4210"
         inkscape:connector-curvature="0"
         sodipodi:nodetypes="cc" />
      <path
         style="fill:none;stroke:#000000;stroke-width:4;stroke-linecap:butt;stroke-linejoin:miter;stroke-miterlimit:4;stroke-opacity:1;stroke-dasharray:none;marker-end:url(#Arrow2Mend)"
         d="m 462,282.36218 120,0"
         id="path4227"
         inkscape:connector-curvature="0"
         sodipodi:nodetypes="cc" />
      <path
         sodipodi:nodetypes="cccc"
         inkscape:connector-curvature="0"
         id="path4229"
         d="m 530,282.36218 0,100 m -80,100 -60,0"
         style="fill:none;stroke:#000000;stroke-width:4;stroke-linecap:butt;stroke-linejoin:miter;stroke-miterlimit:4;stroke-opacity:1;stroke-dasharray:none;marker-end:url(#Arrow2Mend)" />
      <path
         d="m 535,282.36218 c 0,2.76143 -2.23858,5 -5,5 -2.76142,0 -5,-2.23857 -5,-5 0,-2.76142 2.23858,-5 5,-5 2.76142,0 5,2.23858 5,5 z"
         sodipodi:ry="5"
         sodipodi:rx="5"
         sodipodi:cy="282.36218"
         sodipodi:cx="530"
         id="path4231"
         style="fill:#000000;stroke:none"
         sodipodi:type="arc" />
      <text
         sodipodi:linespacing="125%"
         id="text4233"
         y="283.60941"
         x="58.171387"
         style="font-size:40px;font-style:normal;font-weight:normal;line-height:125%;letter-spacing:0px;word-spacing:0px;fill:#000000;fill-opacity:1;stroke:none;font-family:Sans"
         xml:space="preserve"><tspan
           style="font-size:30px;font-weight:bold;-inkscape-font-specification:Sans Bold"
           y="283.60941"
           x="58.171387"
           id="tspan4235"
           sodipodi:role="line">Loop</tspan><tspan
           style="font-size:30px;font-weight:bold;-inkscape-font-specification:Sans Bold"
           id="tspan4237"
           y="321.10941"
           x="58.171387"
           sodipodi:role="line">filter</tspan></text>
      <text
         xml:space="preserve"
         style="font-size:48px;font-style:normal;font-weight:normal;line-height:125%;letter-spacing:0px;word-spacing:0px;fill:#000000;fill-opacity:1;stroke:none;font-family:Sans"
         x="346.00793"
         y="295.46671"
         id="text4239"
         sodipodi:linespacing="125%"><tspan
           sodipodi:role="line"
           x="346.00793"
           y="295.46671"
           id="tspan4243"
           style="font-size:36px;font-weight:bold;-inkscape-font-specification:Sans Bold">ADC</tspan></text>
      <g
         transform="translate(-80,0)"
         id="g4649">
        <path
           sodipodi:nodetypes="cssssssscsssc"
           inkscape:connector-curvature="0"
           id="path3760"
           d="m 430,432.36218 -119.96464,0 c -0.01,0 -0.0177,0.008 -0.0177,0.0177 l 0,99.96464 c 0,0.01 0.008,0.0177 0.0177,0.0177 l 119.96464,0 c 0.005,0 0.009,-0.002 0.0126,-0.005 0.003,-0.003 0.005,-0.008 0.005,-0.0125 l 30.00008,-49.98254 -30.00008,-49.9821 c -0.003,-0.004 -0.002,-0.009 -0.005,-0.0126 -0.003,-0.003 -0.008,-0.005 -0.0125,-0.005 z"
           style="fill:none;stroke:#000000;stroke-width:5;stroke-miterlimit:4" />
        <text
           xml:space="preserve"
           style="font-size:48px;font-style:normal;font-weight:normal;line-height:125%;letter-spacing:0px;word-spacing:0px;fill:#000000;fill-opacity:1;stroke:none;font-family:Sans"
           x="330.44345"
           y="495.46671"
           id="text4247"
           sodipodi:linespacing="125%"><tspan
             sodipodi:role="line"
             x="330.44345"
             y="495.46671"
             id="tspan4249"
             style="font-size:36px;font-weight:bold;-inkscape-font-specification:Sans Bold">DAC</tspan></text>
      </g>
      <g
         transform="matrix(0.7,0,0,0.7,159,114.70865)"
         id="g4255">
        <path
           style="fill:none;stroke:#000000;stroke-width:5.71428585;stroke-linecap:butt;stroke-linejoin:miter;stroke-miterlimit:4;stroke-opacity:1;stroke-dasharray:none"
           d="m 540,372.36218 -20,20"
           id="path4251"
           inkscape:connector-curvature="0" />
        <path
           style="fill:none;stroke:#000000;stroke-width:5.71428585;stroke-linecap:butt;stroke-linejoin:miter;stroke-miterlimit:4;stroke-opacity:1;stroke-dasharray:none"
           d="m 520,372.36218 20,20"
           id="path4253"
           inkscape:connector-curvature="0" />
      </g>
      <g
         transform="translate(-65,-15)"
         id="g4639">
        <g
           transform="translate(1.6756263,-8.3243737)"
           id="g5215">
          <path
             inkscape:connector-curvature="0"
             id="path4259"
             d="m 540,529.01093 0,-85"
             style="fill:none;stroke:#000000;stroke-width:2;stroke-linecap:butt;stroke-linejoin:miter;stroke-miterlimit:4;stroke-opacity:1;stroke-dasharray:none;marker-end:url(#Arrow2Mend)" />
          <path
             inkscape:connector-curvature="0"
             id="path4261"
             d="m 535,517.36218 115,0"
             style="fill:none;stroke:#000000;stroke-width:2;stroke-linecap:butt;stroke-linejoin:miter;stroke-miterlimit:4;stroke-opacity:1;stroke-dasharray:none;marker-end:url(#Arrow2Mend)" />
          <path
             inkscape:connector-curvature="0"
             id="path4637"
             d="m 540,517.36218 0,-45"
             style="fill:none;stroke:#000000;stroke-width:4;stroke-linecap:butt;stroke-linejoin:miter;stroke-miterlimit:4;stroke-opacity:1;stroke-dasharray:none" />
          <path
             transform="translate(-10,-45)"
             d="m 555,517.36218 c 0,2.76143 -2.23858,5 -5,5 -2.76142,0 -5,-2.23857 -5,-5 0,-2.76142 2.23858,-5 5,-5 2.76142,0 5,2.23858 5,5 z"
             sodipodi:ry="5"
             sodipodi:rx="5"
             sodipodi:cy="517.36218"
             sodipodi:cx="550"
             id="path4627"
             style="fill:#ffffff;fill-opacity:1;stroke:#000000;stroke-width:2;stroke-miterlimit:4;stroke-dasharray:none"
             sodipodi:type="arc" />
          <path
             sodipodi:type="arc"
             style="fill:#ffffff;fill-opacity:1;stroke:#000000;stroke-width:2;stroke-miterlimit:4;stroke-dasharray:none"
             id="path4629"
             sodipodi:cx="550"
             sodipodi:cy="517.36218"
             sodipodi:rx="5"
             sodipodi:ry="5"
             d="m 555,517.36218 c 0,2.76143 -2.23858,5 -5,5 -2.76142,0 -5,-2.23857 -5,-5 0,-2.76142 2.23858,-5 5,-5 2.76142,0 5,2.23858 5,5 z"
             transform="translate(10,0)" />
          <path
             transform="translate(30,0)"
             d="m 555,517.36218 c 0,2.76143 -2.23858,5 -5,5 -2.76142,0 -5,-2.23857 -5,-5 0,-2.76142 2.23858,-5 5,-5 2.76142,0 5,2.23858 5,5 z"
             sodipodi:ry="5"
             sodipodi:rx="5"
             sodipodi:cy="517.36218"
             sodipodi:cx="550"
             id="path4631"
             style="fill:#ffffff;fill-opacity:1;stroke:#000000;stroke-width:2;stroke-miterlimit:4;stroke-dasharray:none"
             sodipodi:type="arc" />
          <path
             transform="translate(50,0)"
             d="m 555,517.36218 c 0,2.76143 -2.23858,5 -5,5 -2.76142,0 -5,-2.23857 -5,-5 0,-2.76142 2.23858,-5 5,-5 2.76142,0 5,2.23858 5,5 z"
             sodipodi:ry="5"
             sodipodi:rx="5"
             sodipodi:cy="517.36218"
             sodipodi:cx="550"
             id="path4633"
             style="fill:#ffffff;fill-opacity:1;stroke:#000000;stroke-width:2;stroke-miterlimit:4;stroke-dasharray:none"
             sodipodi:type="arc" />
          <path
             sodipodi:type="arc"
             style="fill:#ffffff;fill-opacity:1;stroke:#000000;stroke-width:2;stroke-miterlimit:4;stroke-dasharray:none"
             id="path4635"
             sodipodi:cx="550"
             sodipodi:cy="517.36218"
             sodipodi:rx="5"
             sodipodi:ry="5"
             d="m 555,517.36218 c 0,2.76143 -2.23858,5 -5,5 -2.76142,0 -5,-2.23857 -5,-5 0,-2.76142 2.23858,-5 5,-5 2.76142,0 5,2.23858 5,5 z"
             transform="translate(70,0)" />
        </g>
        <rect
           ry="0.017677668"
           transform="translate(65,15)"
           y="412.36218"
           x="460"
           height="100"
           width="140"
           id="rect5213"
           style="fill:none;stroke:#000000;stroke-width:2;stroke-miterlimit:4;stroke-opacity:1;stroke-dasharray:none;stroke-dashoffset:0" />
      </g>
      <path
         sodipodi:nodetypes="cc"
         inkscape:connector-curvature="0"
         id="path4979"
         d="m 210,277.36218 c 10,-25 15,-9.99999 30,-40"
         style="fill:none;stroke:#000000;stroke-width:3;stroke-linecap:butt;stroke-linejoin:miter;stroke-miterlimit:4;stroke-opacity:1;stroke-dasharray:none;marker-end:url(#Arrow2Mend)" />
      <text
         sodipodi:linespacing="125%"
         id="text4769"
         y="292.36218"
         x="-80"
         style="font-size:40px;font-style:normal;font-weight:normal;line-height:125%;letter-spacing:0px;word-spacing:0px;fill:#000000;fill-opacity:1;stroke:none;font-family:Sans"
         xml:space="preserve"><tspan
           y="292.36218"
           x="-80"
           id="tspan4771"
           sodipodi:role="line">u</tspan></text>
      <text
         sodipodi:linespacing="125%"
         id="text4773"
         y="292.36218"
         x="600"
         style="font-size:40px;font-style:normal;font-weight:normal;line-height:125%;letter-spacing:0px;word-spacing:0px;fill:#000000;fill-opacity:1;stroke:none;font-family:Sans"
         xml:space="preserve"><tspan
           y="292.36218"
           x="600"
           id="tspan4775"
           sodipodi:role="line">v</tspan></text>
      <rect
         style="fill:none;stroke:#000000;stroke-width:4;stroke-miterlimit:4;stroke-dasharray:none"
         id="rect4829"
         width="120"
         height="100"
         x="880"
         y="241.63675"
         ry="0.017677668" />
      <path
         style="fill:none;stroke:#000000;stroke-width:5;stroke-miterlimit:4"
         d="m 1170.0354,232.36218 119.9646,0 c 0.01,0 0.018,0.008 0.018,0.0177 l 0,99.96464 c 0,0.01 -0.01,0.0177 -0.018,0.0177 l -119.9646,0 c 0,0 -0.01,-0.002 -0.013,-0.005 0,-0.003 0,-0.008 0,-0.0125 l -30.0001,-49.98254 30.0001,-49.9821 c 0,-0.004 0,-0.009 0,-0.0126 0,-0.003 0.01,-0.005 0.013,-0.005 z"
         id="path4831"
         inkscape:connector-curvature="0"
         sodipodi:nodetypes="cssssssscsssc" />
      <path
         style="fill:none;stroke:#000000;stroke-width:4;stroke-linecap:butt;stroke-linejoin:miter;stroke-miterlimit:4;stroke-opacity:1;stroke-dasharray:none;marker-end:url(#Arrow2Mend)"
         d="m 1010,282.36218 40,0 30,-20 m 0,20 50,0"
         id="path4833"
         inkscape:connector-curvature="0"
         sodipodi:nodetypes="ccccc" />
      <path
         sodipodi:nodetypes="ccc"
         inkscape:connector-curvature="0"
         id="path4835"
         d="m 1060,482.36218 -130,0 0,-130"
         style="fill:none;stroke:#000000;stroke-width:4;stroke-linecap:butt;stroke-linejoin:miter;stroke-miterlimit:4;stroke-opacity:1;stroke-dasharray:none;marker-end:url(#Arrow2Mend)" />
      <path
         sodipodi:nodetypes="cc"
         inkscape:connector-curvature="0"
         id="path4837"
         d="m 800,282.36218 70,0"
         style="fill:none;stroke:#000000;stroke-width:4;stroke-linecap:butt;stroke-linejoin:miter;stroke-miterlimit:4;stroke-opacity:1;stroke-dasharray:none;marker-end:url(#Arrow2Mend)" />
      <path
         sodipodi:nodetypes="cc"
         inkscape:connector-curvature="0"
         id="path4839"
         d="m 1302,282.36218 120,0"
         style="fill:none;stroke:#000000;stroke-width:4;stroke-linecap:butt;stroke-linejoin:miter;stroke-miterlimit:4;stroke-opacity:1;stroke-dasharray:none;marker-end:url(#Arrow2Mend)" />
      <path
         style="fill:none;stroke:#000000;stroke-width:4;stroke-linecap:butt;stroke-linejoin:miter;stroke-miterlimit:4;stroke-opacity:1;stroke-dasharray:none;marker-end:url(#Arrow2Mend)"
         d="m 1370,282.36218 0,100 m -80,100 -60,0"
         id="path4841"
         inkscape:connector-curvature="0"
         sodipodi:nodetypes="cccc" />
      <path
         transform="translate(840,0)"
         sodipodi:type="arc"
         style="fill:#000000;stroke:none"
         id="path4843"
         sodipodi:cx="530"
         sodipodi:cy="282.36218"
         sodipodi:rx="5"
         sodipodi:ry="5"
         d="m 535,282.36218 c 0,2.76143 -2.23858,5 -5,5 -2.76142,0 -5,-2.23857 -5,-5 0,-2.76142 2.23858,-5 5,-5 2.76142,0 5,2.23858 5,5 z" />
      <text
         xml:space="preserve"
         style="font-size:40px;font-style:normal;font-weight:normal;line-height:125%;letter-spacing:0px;word-spacing:0px;fill:#000000;fill-opacity:1;stroke:none;font-family:Sans"
         x="898.17139"
         y="283.60941"
         id="text4845"
         sodipodi:linespacing="125%"><tspan
           sodipodi:role="line"
           id="tspan4847"
           x="898.17139"
           y="283.60941"
           style="font-size:30px;font-weight:bold;-inkscape-font-specification:Sans Bold">Loop</tspan><tspan
           sodipodi:role="line"
           x="898.17139"
           y="321.10941"
           id="tspan4849"
           style="font-size:30px;font-weight:bold;-inkscape-font-specification:Sans Bold">filter</tspan></text>
      <text
         sodipodi:linespacing="125%"
         id="text4851"
         y="295.46671"
         x="1186.0079"
         style="font-size:48px;font-style:normal;font-weight:normal;line-height:125%;letter-spacing:0px;word-spacing:0px;fill:#000000;fill-opacity:1;stroke:none;font-family:Sans"
         xml:space="preserve"><tspan
           style="font-size:36px;font-weight:bold;-inkscape-font-specification:Sans Bold"
           id="tspan4853"
           y="295.46671"
           x="1186.0079"
           sodipodi:role="line">ADC</tspan></text>
      <g
         id="g4855"
         transform="translate(760,0)">
        <path
           style="fill:none;stroke:#000000;stroke-width:5;stroke-miterlimit:4"
           d="m 430,432.36218 -119.96464,0 c -0.01,0 -0.0177,0.008 -0.0177,0.0177 l 0,99.96464 c 0,0.01 0.008,0.0177 0.0177,0.0177 l 119.96464,0 c 0.005,0 0.009,-0.002 0.0126,-0.005 0.003,-0.003 0.005,-0.008 0.005,-0.0125 l 30.00008,-49.98254 -30.00008,-49.9821 c -0.003,-0.004 -0.002,-0.009 -0.005,-0.0126 -0.003,-0.003 -0.008,-0.005 -0.0125,-0.005 z"
           id="path4857"
           inkscape:connector-curvature="0"
           sodipodi:nodetypes="cssssssscsssc" />
        <text
           sodipodi:linespacing="125%"
           id="text4859"
           y="495.46671"
           x="330.44345"
           style="font-size:48px;font-style:normal;font-weight:normal;line-height:125%;letter-spacing:0px;word-spacing:0px;fill:#000000;fill-opacity:1;stroke:none;font-family:Sans"
           xml:space="preserve"><tspan
             style="font-size:36px;font-weight:bold;-inkscape-font-specification:Sans Bold"
             id="tspan4861"
             y="495.46671"
             x="330.44345"
             sodipodi:role="line">DAC</tspan></text>
      </g>
      <g
         id="g4863"
         transform="matrix(0.7,0,0,0.7,999,114.70865)">
        <path
           inkscape:connector-curvature="0"
           id="path4865"
           d="m 540,372.36218 -20,20"
           style="fill:none;stroke:#000000;stroke-width:5.71428585;stroke-linecap:butt;stroke-linejoin:miter;stroke-miterlimit:4;stroke-opacity:1;stroke-dasharray:none" />
        <path
           inkscape:connector-curvature="0"
           id="path4867"
           d="m 520,372.36218 20,20"
           style="fill:none;stroke:#000000;stroke-width:5.71428585;stroke-linecap:butt;stroke-linejoin:miter;stroke-miterlimit:4;stroke-opacity:1;stroke-dasharray:none" />
      </g>
      <text
         xml:space="preserve"
         style="font-size:40px;font-style:normal;font-weight:normal;line-height:125%;letter-spacing:0px;word-spacing:0px;fill:#000000;fill-opacity:1;stroke:none;font-family:Sans"
         x="760"
         y="292.36218"
         id="text4911"
         sodipodi:linespacing="125%"><tspan
           sodipodi:role="line"
           id="tspan4913"
           x="760"
           y="292.36218">u</tspan></text>
      <text
         xml:space="preserve"
         style="font-size:40px;font-style:normal;font-weight:normal;line-height:125%;letter-spacing:0px;word-spacing:0px;fill:#000000;fill-opacity:1;stroke:none;font-family:Sans"
         x="1440"
         y="292.36218"
         id="text4915"
         sodipodi:linespacing="125%"><tspan
           sodipodi:role="line"
           id="tspan4917"
           x="1440"
           y="292.36218">v</tspan></text>
      <text
         sodipodi:linespacing="125%"
         id="text4925"
         y="99.412277"
         x="151.38512"
         style="font-size:40px;font-style:normal;font-weight:normal;line-height:125%;letter-spacing:0px;word-spacing:0px;fill:#000000;fill-opacity:1;stroke:none;font-family:Sans"
         xml:space="preserve"><tspan
           style="font-weight:bold;-inkscape-font-specification:Sans Bold"
           y="99.412277"
           x="151.38512"
           id="tspan4927"
           sodipodi:role="line">DT prototype</tspan></text>
      <text
         xml:space="preserve"
         style="font-size:40px;font-style:normal;font-weight:normal;line-height:125%;letter-spacing:0px;word-spacing:0px;fill:#000000;fill-opacity:1;stroke:none;font-family:Sans"
         x="980"
         y="92.362183"
         id="text4929"
         sodipodi:linespacing="125%"><tspan
           style="font-weight:bold;-inkscape-font-specification:Sans Bold"
           sodipodi:role="line"
           id="tspan4931"
           x="980"
           y="92.362183">CT equivalent</tspan></text>
      <text
         sodipodi:linespacing="125%"
         id="text4933"
         y="373.07001"
         x="564.78296"
         style="font-size:40px;font-style:normal;font-weight:normal;line-height:125%;letter-spacing:0px;word-spacing:0px;fill:#000000;fill-opacity:1;stroke:none;font-family:Sans"
         xml:space="preserve"><tspan
           style="font-size:26px;font-weight:bold;-inkscape-font-specification:Sans Bold"
           id="tspan4937"
           y="373.07001"
           x="564.78296"
           sodipodi:role="line">1. break loop</tspan></text>
      <g
         id="g5340">
        <g
           id="g4964"
           transform="translate(-51.67563,-1.67563)">
          <g
             id="g4745"
             transform="translate(-293.32437,-308.32437)">
            <path
               inkscape:connector-curvature="0"
               id="path4747"
               d="m 540,529.01093 0,-85"
               style="fill:none;stroke:#000000;stroke-width:2;stroke-linecap:butt;stroke-linejoin:miter;stroke-miterlimit:4;stroke-opacity:1;stroke-dasharray:none;marker-end:url(#Arrow2Mend)" />
            <path
               inkscape:connector-curvature="0"
               id="path4749"
               d="m 535,517.36218 115,0"
               style="fill:none;stroke:#000000;stroke-width:2;stroke-linecap:butt;stroke-linejoin:miter;stroke-miterlimit:4;stroke-opacity:1;stroke-dasharray:none;marker-end:url(#Arrow2Mend)" />
            <path
               inkscape:connector-curvature="0"
               id="path4751"
               d="m 560,517.36218 0,-20"
               style="fill:none;stroke:#000000;stroke-width:4;stroke-linecap:butt;stroke-linejoin:miter;stroke-miterlimit:4;stroke-opacity:1;stroke-dasharray:none"
               sodipodi:nodetypes="cc" />
            <path
               transform="translate(-10,0)"
               d="m 555,517.36218 c 0,2.76143 -2.23858,5 -5,5 -2.76142,0 -5,-2.23857 -5,-5 0,-2.76142 2.23858,-5 5,-5 2.76142,0 5,2.23858 5,5 z"
               sodipodi:ry="5"
               sodipodi:rx="5"
               sodipodi:cy="517.36218"
               sodipodi:cx="550"
               id="path4753"
               style="fill:#ffffff;fill-opacity:1;stroke:#000000;stroke-width:2;stroke-miterlimit:4;stroke-dasharray:none"
               sodipodi:type="arc" />
            <path
               sodipodi:type="arc"
               style="fill:#ffffff;fill-opacity:1;stroke:#000000;stroke-width:2;stroke-miterlimit:4;stroke-dasharray:none"
               id="path4755"
               sodipodi:cx="550"
               sodipodi:cy="517.36218"
               sodipodi:rx="5"
               sodipodi:ry="5"
               d="m 555,517.36218 c 0,2.76143 -2.23858,5 -5,5 -2.76142,0 -5,-2.23857 -5,-5 0,-2.76142 2.23858,-5 5,-5 2.76142,0 5,2.23858 5,5 z"
               transform="translate(10,-20)" />
            <path
               style="fill:none;stroke:#000000;stroke-width:4;stroke-linecap:butt;stroke-linejoin:miter;stroke-miterlimit:4;stroke-opacity:1;stroke-dasharray:none"
               d="m 580,517.36218 0,-25"
               id="path4763"
               inkscape:connector-curvature="0"
               sodipodi:nodetypes="cc" />
            <path
               transform="translate(30,-25)"
               d="m 555,517.36218 c 0,2.76143 -2.23858,5 -5,5 -2.76142,0 -5,-2.23857 -5,-5 0,-2.76142 2.23858,-5 5,-5 2.76142,0 5,2.23858 5,5 z"
               sodipodi:ry="5"
               sodipodi:rx="5"
               sodipodi:cy="517.36218"
               sodipodi:cx="550"
               id="path4757"
               style="fill:#ffffff;fill-opacity:1;stroke:#000000;stroke-width:2;stroke-miterlimit:4;stroke-dasharray:none"
               sodipodi:type="arc" />
            <path
               inkscape:connector-curvature="0"
               id="path4765"
               d="m 600,517.36218 0,-30"
               style="fill:none;stroke:#000000;stroke-width:4;stroke-linecap:butt;stroke-linejoin:miter;stroke-miterlimit:4;stroke-opacity:1;stroke-dasharray:none"
               sodipodi:nodetypes="cc" />
            <path
               transform="translate(50,-30)"
               d="m 555,517.36218 c 0,2.76143 -2.23858,5 -5,5 -2.76142,0 -5,-2.23857 -5,-5 0,-2.76142 2.23858,-5 5,-5 2.76142,0 5,2.23858 5,5 z"
               sodipodi:ry="5"
               sodipodi:rx="5"
               sodipodi:cy="517.36218"
               sodipodi:cx="550"
               id="path4759"
               style="fill:#ffffff;fill-opacity:1;stroke:#000000;stroke-width:2;stroke-miterlimit:4;stroke-dasharray:none"
               sodipodi:type="arc" />
            <path
               style="fill:none;stroke:#000000;stroke-width:4;stroke-linecap:butt;stroke-linejoin:miter;stroke-miterlimit:4;stroke-opacity:1;stroke-dasharray:none"
               d="m 620,517.36218 0,-35"
               id="path4767"
               inkscape:connector-curvature="0"
               sodipodi:nodetypes="cc" />
            <path
               sodipodi:type="arc"
               style="fill:#ffffff;fill-opacity:1;stroke:#000000;stroke-width:2;stroke-miterlimit:4;stroke-dasharray:none"
               id="path4761"
               sodipodi:cx="550"
               sodipodi:cy="517.36218"
               sodipodi:rx="5"
               sodipodi:ry="5"
               d="m 555,517.36218 c 0,2.76143 -2.23858,5 -5,5 -2.76142,0 -5,-2.23857 -5,-5 0,-2.76142 2.23858,-5 5,-5 2.76142,0 5,2.23858 5,5 z"
               transform="translate(70,-35)" />
          </g>
          <rect
             ry="0.017677668"
             y="122.36218"
             x="230"
             height="110"
             width="140"
             id="rect4962"
             style="fill:none;stroke:#000000;stroke-width:2;stroke-miterlimit:4;stroke-opacity:1;stroke-dasharray:none;stroke-dashoffset:0" />
        </g>
        <text
           sodipodi:linespacing="125%"
           id="text4943"
           y="172.36218"
           x="-40"
           style="font-size:40px;font-style:normal;font-weight:normal;line-height:125%;letter-spacing:0px;word-spacing:0px;fill:#000000;fill-opacity:1;stroke:none;font-family:Sans"
           xml:space="preserve"><tspan
             style="font-size:26px;font-weight:bold;-inkscape-font-specification:Sans Bold"
             id="tspan4951"
             y="172.36218"
             x="-40"
             sodipodi:role="line">3. get impulse</tspan><tspan
             style="font-size:26px;font-weight:bold;-inkscape-font-specification:Sans Bold"
             y="204.86218"
             x="-40"
             sodipodi:role="line"
             id="tspan5241">    response</tspan></text>
      </g>
      <text
         xml:space="preserve"
         style="font-size:40px;font-style:normal;font-weight:normal;line-height:125%;letter-spacing:0px;word-spacing:0px;fill:#000000;fill-opacity:1;stroke:none;font-family:Sans"
         x="455"
         y="442.36218"
         id="text5225"
         sodipodi:linespacing="125%"><tspan
           sodipodi:role="line"
           id="tspan5227"
           x="455"
           y="442.36218"
           style="font-size:26px;font-weight:bold;-inkscape-font-specification:Sans Bold" /><tspan
           sodipodi:role="line"
           x="455"
           y="474.86218"
           style="font-size:26px;font-weight:bold;-inkscape-font-specification:Sans Bold"
           id="tspan5229" /><tspan
           sodipodi:role="line"
           x="455"
           y="507.36218"
           style="font-size:26px;font-weight:bold;-inkscape-font-specification:Sans Bold"
           id="tspan5231" /><tspan
           sodipodi:role="line"
           x="455"
           y="539.86218"
           id="tspan5233"
           style="font-size:26px;font-weight:bold;-inkscape-font-specification:Sans Bold">2. inject impulse</tspan></text>
      <g
         transform="translate(-34,-4)"
         id="g5484">
        <g
           id="g4887"
           transform="translate(525,-305)">
          <path
             inkscape:connector-curvature="0"
             id="path4889"
             d="m 540,529.01093 0,-85"
             style="fill:none;stroke:#000000;stroke-width:2;stroke-linecap:butt;stroke-linejoin:miter;stroke-miterlimit:4;stroke-opacity:1;stroke-dasharray:none;marker-end:url(#Arrow2Mend)" />
          <path
             inkscape:connector-curvature="0"
             id="path4891"
             d="m 535,517.36218 115,0"
             style="fill:none;stroke:#000000;stroke-width:2;stroke-linecap:butt;stroke-linejoin:miter;stroke-miterlimit:4;stroke-opacity:1;stroke-dasharray:none;marker-end:url(#Arrow2Mend)" />
          <path
             inkscape:connector-curvature="0"
             id="path4893"
             d="m 560,517.36218 0,-20"
             style="fill:none;stroke:#000000;stroke-width:4;stroke-linecap:butt;stroke-linejoin:miter;stroke-miterlimit:4;stroke-opacity:1;stroke-dasharray:none"
             sodipodi:nodetypes="cc" />
          <path
             style="fill:none;stroke:#0000ff;stroke-width:2;stroke-linecap:butt;stroke-linejoin:miter;stroke-miterlimit:4;stroke-opacity:1;stroke-dasharray:none"
             d="m 1065,212.36218 20,-20 20,-5 20,-5 20,-5 15,-5 0,0"
             id="path4921"
             inkscape:connector-curvature="0"
             transform="translate(-525,305)" />
          <path
             transform="translate(-10,0)"
             d="m 555,517.36218 c 0,2.76143 -2.23858,5 -5,5 -2.76142,0 -5,-2.23857 -5,-5 0,-2.76142 2.23858,-5 5,-5 2.76142,0 5,2.23858 5,5 z"
             sodipodi:ry="5"
             sodipodi:rx="5"
             sodipodi:cy="517.36218"
             sodipodi:cx="550"
             id="path4895"
             style="fill:#ffffff;fill-opacity:1;stroke:#000000;stroke-width:2;stroke-miterlimit:4;stroke-dasharray:none"
             sodipodi:type="arc" />
          <path
             sodipodi:type="arc"
             style="fill:#ffffff;fill-opacity:1;stroke:#000000;stroke-width:2;stroke-miterlimit:4;stroke-dasharray:none"
             id="path4897"
             sodipodi:cx="550"
             sodipodi:cy="517.36218"
             sodipodi:rx="5"
             sodipodi:ry="5"
             d="m 555,517.36218 c 0,2.76143 -2.23858,5 -5,5 -2.76142,0 -5,-2.23857 -5,-5 0,-2.76142 2.23858,-5 5,-5 2.76142,0 5,2.23858 5,5 z"
             transform="translate(10,-20)" />
          <path
             style="fill:none;stroke:#000000;stroke-width:4;stroke-linecap:butt;stroke-linejoin:miter;stroke-miterlimit:4;stroke-opacity:1;stroke-dasharray:none"
             d="m 580,517.36218 0,-25"
             id="path4899"
             inkscape:connector-curvature="0"
             sodipodi:nodetypes="cc" />
          <path
             transform="translate(30,-25)"
             d="m 555,517.36218 c 0,2.76143 -2.23858,5 -5,5 -2.76142,0 -5,-2.23857 -5,-5 0,-2.76142 2.23858,-5 5,-5 2.76142,0 5,2.23858 5,5 z"
             sodipodi:ry="5"
             sodipodi:rx="5"
             sodipodi:cy="517.36218"
             sodipodi:cx="550"
             id="path4901"
             style="fill:#ffffff;fill-opacity:1;stroke:#000000;stroke-width:2;stroke-miterlimit:4;stroke-dasharray:none"
             sodipodi:type="arc" />
          <path
             inkscape:connector-curvature="0"
             id="path4903"
             d="m 600,517.36218 0,-30"
             style="fill:none;stroke:#000000;stroke-width:4;stroke-linecap:butt;stroke-linejoin:miter;stroke-miterlimit:4;stroke-opacity:1;stroke-dasharray:none"
             sodipodi:nodetypes="cc" />
          <path
             transform="translate(50,-30)"
             d="m 555,517.36218 c 0,2.76143 -2.23858,5 -5,5 -2.76142,0 -5,-2.23857 -5,-5 0,-2.76142 2.23858,-5 5,-5 2.76142,0 5,2.23858 5,5 z"
             sodipodi:ry="5"
             sodipodi:rx="5"
             sodipodi:cy="517.36218"
             sodipodi:cx="550"
             id="path4905"
             style="fill:#ffffff;fill-opacity:1;stroke:#000000;stroke-width:2;stroke-miterlimit:4;stroke-dasharray:none"
             sodipodi:type="arc" />
          <path
             style="fill:none;stroke:#000000;stroke-width:4;stroke-linecap:butt;stroke-linejoin:miter;stroke-miterlimit:4;stroke-opacity:1;stroke-dasharray:none"
             d="m 620,517.36218 0,-35"
             id="path4907"
             inkscape:connector-curvature="0"
             sodipodi:nodetypes="cc" />
          <path
             sodipodi:type="arc"
             style="fill:#ffffff;fill-opacity:1;stroke:#000000;stroke-width:2;stroke-miterlimit:4;stroke-dasharray:none"
             id="path4909"
             sodipodi:cx="550"
             sodipodi:cy="517.36218"
             sodipodi:rx="5"
             sodipodi:ry="5"
             d="m 555,517.36218 c 0,2.76143 -2.23858,5 -5,5 -2.76142,0 -5,-2.23857 -5,-5 0,-2.76142 2.23858,-5 5,-5 2.76142,0 5,2.23858 5,5 z"
             transform="translate(70,-35)" />
        </g>
        <g
           id="g5359"
           transform="translate(870,5.0000037)">
          <g
             id="g5361"
             transform="translate(-51.67563,-1.67563)">
            <rect
               ry="0.017677668"
               y="122.36218"
               x="230"
               height="110"
               width="140"
               id="rect5387"
               style="fill:none;stroke:#000000;stroke-width:2;stroke-miterlimit:4;stroke-opacity:1;stroke-dasharray:none;stroke-dashoffset:0" />
          </g>
        </g>
      </g>
      <g
         id="g5524">
        <g
           transform="translate(776.67563,-23.324374)"
           id="g4869">
          <path
             style="fill:none;stroke:#000000;stroke-width:2;stroke-linecap:butt;stroke-linejoin:miter;stroke-miterlimit:4;stroke-opacity:1;stroke-dasharray:none;marker-end:url(#Arrow2Mend)"
             d="m 540,529.01093 0,-85"
             id="path4871"
             inkscape:connector-curvature="0" />
          <path
             style="fill:none;stroke:#000000;stroke-width:2;stroke-linecap:butt;stroke-linejoin:miter;stroke-miterlimit:4;stroke-opacity:1;stroke-dasharray:none;marker-end:url(#Arrow2Mend)"
             d="m 535,517.36218 115,0"
             id="path4873"
             inkscape:connector-curvature="0" />
          <path
             style="fill:none;stroke:#0000ff;stroke-width:2;stroke-linecap:butt;stroke-linejoin:miter;stroke-miterlimit:4;stroke-opacity:1;stroke-dasharray:none"
             d="m 1310,502.36218 5,0 0,-45 20,0 0,45 75,0"
             id="path4923"
             inkscape:connector-curvature="0"
             transform="translate(-775,15)"
             sodipodi:nodetypes="cccccc" />
          <path
             sodipodi:type="arc"
             style="fill:#ffffff;fill-opacity:1;stroke:#000000;stroke-width:2;stroke-miterlimit:4;stroke-dasharray:none"
             id="path4877"
             sodipodi:cx="550"
             sodipodi:cy="517.36218"
             sodipodi:rx="5"
             sodipodi:ry="5"
             d="m 555,517.36218 c 0,2.76143 -2.23858,5 -5,5 -2.76142,0 -5,-2.23857 -5,-5 0,-2.76142 2.23858,-5 5,-5 2.76142,0 5,2.23858 5,5 z"
             transform="translate(-10,-45)" />
          <path
             transform="translate(10,0)"
             d="m 555,517.36218 c 0,2.76143 -2.23858,5 -5,5 -2.76142,0 -5,-2.23857 -5,-5 0,-2.76142 2.23858,-5 5,-5 2.76142,0 5,2.23858 5,5 z"
             sodipodi:ry="5"
             sodipodi:rx="5"
             sodipodi:cy="517.36218"
             sodipodi:cx="550"
             id="path4879"
             style="fill:#ffffff;fill-opacity:1;stroke:#000000;stroke-width:2;stroke-miterlimit:4;stroke-dasharray:none"
             sodipodi:type="arc" />
          <path
             sodipodi:type="arc"
             style="fill:#ffffff;fill-opacity:1;stroke:#000000;stroke-width:2;stroke-miterlimit:4;stroke-dasharray:none"
             id="path4881"
             sodipodi:cx="550"
             sodipodi:cy="517.36218"
             sodipodi:rx="5"
             sodipodi:ry="5"
             d="m 555,517.36218 c 0,2.76143 -2.23858,5 -5,5 -2.76142,0 -5,-2.23857 -5,-5 0,-2.76142 2.23858,-5 5,-5 2.76142,0 5,2.23858 5,5 z"
             transform="translate(30,0)" />
          <path
             sodipodi:type="arc"
             style="fill:#ffffff;fill-opacity:1;stroke:#000000;stroke-width:2;stroke-miterlimit:4;stroke-dasharray:none"
             id="path4883"
             sodipodi:cx="550"
             sodipodi:cy="517.36218"
             sodipodi:rx="5"
             sodipodi:ry="5"
             d="m 555,517.36218 c 0,2.76143 -2.23858,5 -5,5 -2.76142,0 -5,-2.23857 -5,-5 0,-2.76142 2.23858,-5 5,-5 2.76142,0 5,2.23858 5,5 z"
             transform="translate(50,0)" />
          <path
             transform="translate(70,0)"
             d="m 555,517.36218 c 0,2.76143 -2.23858,5 -5,5 -2.76142,0 -5,-2.23857 -5,-5 0,-2.76142 2.23858,-5 5,-5 2.76142,0 5,2.23858 5,5 z"
             sodipodi:ry="5"
             sodipodi:rx="5"
             sodipodi:cy="517.36218"
             sodipodi:cx="550"
             id="path4885"
             style="fill:#ffffff;fill-opacity:1;stroke:#000000;stroke-width:2;stroke-miterlimit:4;stroke-dasharray:none"
             sodipodi:type="arc" />
        </g>
        <g
           transform="translate(775,-15)"
           id="g5502">
          <rect
             ry="0.017677668"
             transform="translate(65,15)"
             y="412.36218"
             x="460"
             height="100"
             width="140"
             id="rect5522"
             style="fill:none;stroke:#000000;stroke-width:2;stroke-miterlimit:4;stroke-opacity:1;stroke-dasharray:none;stroke-dashoffset:0" />
        </g>
      </g>
      <text
         xml:space="preserve"
         style="font-size:40px;font-style:normal;font-weight:normal;line-height:125%;letter-spacing:0px;word-spacing:0px;fill:#000000;fill-opacity:1;stroke:none;font-family:Sans"
         x="1384.783"
         y="373.07001"
         id="text5537"
         sodipodi:linespacing="125%"><tspan
           sodipodi:role="line"
           x="1384.783"
           y="373.07001"
           id="tspan5539"
           style="font-size:26px;font-weight:bold;-inkscape-font-specification:Sans Bold">1. break loop</tspan></text>
      <text
         sodipodi:linespacing="125%"
         id="text5541"
         y="442.36218"
         x="1275"
         style="font-size:40px;font-style:normal;font-weight:normal;line-height:125%;letter-spacing:0px;word-spacing:0px;fill:#000000;fill-opacity:1;stroke:none;font-family:Sans"
         xml:space="preserve"><tspan
           style="font-size:26px;font-weight:bold;-inkscape-font-specification:Sans Bold"
           y="442.36218"
           x="1275"
           id="tspan5543"
           sodipodi:role="line" /><tspan
           id="tspan5545"
           style="font-size:26px;font-weight:bold;-inkscape-font-specification:Sans Bold"
           y="474.86218"
           x="1275"
           sodipodi:role="line" /><tspan
           id="tspan5547"
           style="font-size:26px;font-weight:bold;-inkscape-font-specification:Sans Bold"
           y="507.36218"
           x="1275"
           sodipodi:role="line" /><tspan
           style="font-size:26px;font-weight:bold;-inkscape-font-specification:Sans Bold"
           id="tspan5549"
           y="539.86218"
           x="1275"
           sodipodi:role="line">2. inject pulse</tspan></text>
      <text
         sodipodi:linespacing="125%"
         id="text5587"
         y="172.36218"
         x="1180"
         style="font-size:40px;font-style:normal;font-weight:normal;line-height:125%;letter-spacing:0px;word-spacing:0px;fill:#000000;fill-opacity:1;stroke:none;font-family:Sans"
         xml:space="preserve"><tspan
           style="font-size:26px;font-weight:bold;-inkscape-font-specification:Sans Bold"
           id="tspan5589"
           y="172.36218"
           x="1180"
           sodipodi:role="line">3. get sampled </tspan><tspan
           style="font-size:26px;font-weight:bold;-inkscape-font-specification:Sans Bold"
           y="204.86218"
           x="1180"
           sodipodi:role="line"
           id="tspan5591">    impulse response</tspan></text>
      <path
         inkscape:connector-curvature="0"
         id="path5614"
         d="m 340,172.36218 640,0"
         style="fill:none;stroke:#000000;stroke-width:3;stroke-linecap:butt;stroke-linejoin:miter;stroke-miterlimit:4;stroke-opacity:1;stroke-dasharray:12, 6;stroke-dashoffset:0;marker-start:url(#Arrow2Mstart);marker-end:url(#Arrow2Mend)" />
      <path
         style="fill:none;stroke:#000000;stroke-width:3;stroke-linecap:butt;stroke-linejoin:miter;stroke-miterlimit:4;stroke-opacity:1;stroke-dasharray:none;marker-end:url(#Arrow2Mend)"
         d="m 1100,272.36218 c -10,-25 5.0837,-4.99999 -9.9163,-35"
         id="path5616"
         inkscape:connector-curvature="0"
         sodipodi:nodetypes="cc" />
      <text
         xml:space="preserve"
         style="font-size:40px;font-style:normal;font-weight:normal;line-height:125%;letter-spacing:0px;word-spacing:0px;fill:#000000;fill-opacity:1;stroke:none;font-family:Sans"
         x="463.50046"
         y="154.30737"
         id="text5986"
         sodipodi:linespacing="125%"><tspan
           style="font-size:30px;font-weight:bold;-inkscape-font-specification:Sans Bold"
           sodipodi:role="line"
           id="tspan5988"
           x="463.50046"
           y="154.30737">enforce equivalence</tspan></text>
    </g>
  </g>
</svg>
