<?xml version="1.0" encoding="UTF-8" standalone="no"?>
<!-- Created with Inkscape (http://www.inkscape.org/) -->

<svg
   xmlns:dc="http://purl.org/dc/elements/1.1/"
   xmlns:cc="http://creativecommons.org/ns#"
   xmlns:rdf="http://www.w3.org/1999/02/22-rdf-syntax-ns#"
   xmlns:svg="http://www.w3.org/2000/svg"
   xmlns="http://www.w3.org/2000/svg"
   xmlns:sodipodi="http://sodipodi.sourceforge.net/DTD/sodipodi-0.dtd"
   xmlns:inkscape="http://www.inkscape.org/namespaces/inkscape"
   width="575.46033"
   height="107.9875"
   id="svg2"
   version="1.1"
   inkscape:version="0.48.3.1 r9886"
   sodipodi:docname="mapCtoD.svg">
  <defs
     id="defs4" />
  <sodipodi:namedview
     id="base"
     pagecolor="#ffffff"
     bordercolor="#666666"
     borderopacity="1.0"
     inkscape:pageopacity="0.0"
     inkscape:pageshadow="2"
     inkscape:zoom="2.0540078"
     inkscape:cx="377.55456"
     inkscape:cy="34.51963"
     inkscape:document-units="px"
     inkscape:current-layer="g3012"
     showgrid="false"
     inkscape:window-width="1600"
     inkscape:window-height="1141"
     inkscape:window-x="0"
     inkscape:window-y="27"
     inkscape:window-maximized="1"
     fit-margin-top="0"
     fit-margin-left="0"
     fit-margin-right="0"
     fit-margin-bottom="0" />
  <metadata
     id="metadata7">
    <rdf:RDF>
      <cc:Work
         rdf:about="">
        <dc:format>image/svg+xml</dc:format>
        <dc:type
           rdf:resource="http://purl.org/dc/dcmitype/StillImage" />
        <dc:title />
      </cc:Work>
    </rdf:RDF>
  </metadata>
  <g
     inkscape:label="Layer 1"
     inkscape:groupmode="layer"
     id="layer1"
     transform="translate(-85.739669,-657.7497)">
    <g
       transform="matrix(1.25,0,0,-1.25,-120,1027.3622)"
       inkscape:label="DSToolbox"
       id="g3012">
      <text
         id="text3256"
         transform="matrix(1,0,0,-1,265.5,233.98)">
        <tspan
           id="tspan3258"
           sodipodi:role="line"
           y="0"
           x="0 6.6719999 13.344 16.68 -80.160004 -73.487999"
           style="font-size:12px;font-variant:normal;font-weight:normal;writing-mode:lr-tb;fill:#000000;fill-opacity:1;fill-rule:nonzero;stroke:none;font-family:Helvetica;-inkscape-font-specification:Helvetica">–1.5–1</tspan>
      </text>
      <path
         id="path3260"
         style="fill:none;stroke:#000000;stroke-width:1.08000004;stroke-linecap:butt;stroke-linejoin:miter;stroke-miterlimit:3.8599999;stroke-opacity:1;stroke-dasharray:none"
         d="m 184.39,260.91 7.3,2.09 -7.3,2.09 0,-2.09 0,-2.09 z"
         inkscape:connector-curvature="0" />
      <path
         id="path3262"
         style="fill:#000000;fill-opacity:1;fill-rule:evenodd;stroke:none"
         d="m 184.39,260.91 7.3,2.09 -7.3,2.09 0,-2.09"
         inkscape:connector-curvature="0" />
      <path
         id="path3264"
         style="fill:none;stroke:#000000;stroke-width:1.08000004;stroke-linecap:square;stroke-linejoin:miter;stroke-miterlimit:3.8599999;stroke-opacity:1;stroke-dasharray:none"
         d="m 183.89,263 -8.39,0"
         inkscape:connector-curvature="0" />
      <path
         id="path3266"
         style="fill:#ffffff;stroke:#000000;stroke-width:1.55999993999999997;stroke-linecap:butt;stroke-linejoin:miter;stroke-miterlimit:3.85999990000000004;stroke-opacity:1;stroke-dasharray:none;fill-opacity:1"
         d="m 202.5,272.04 c -4.968,0 -9,-4.032 -9,-9 0,-4.968 4.032,-9 9,-9 4.968,0 9,4.032 9,9 0,4.968 -4.032,9 -9,9 z"
         inkscape:connector-curvature="0" />
      <path
         id="path3268"
         style="fill:none;stroke:#000000;stroke-width:1.08000004;stroke-linecap:square;stroke-linejoin:miter;stroke-miterlimit:3.8599999;stroke-opacity:1;stroke-dasharray:none"
         d="m 207,263 -9,0 m 4.5,-4.5 0,9"
         inkscape:connector-curvature="0" />
      <path
         id="path3270"
         style="fill:none;stroke:#000000;stroke-width:1.08000004;stroke-linecap:butt;stroke-linejoin:miter;stroke-miterlimit:3.8599999;stroke-opacity:1;stroke-dasharray:none"
         d="m 220.39,260.91 7.3,2.09 -7.3,2.09 0,-2.09 0,-2.09 z"
         inkscape:connector-curvature="0" />
      <path
         id="path3272"
         style="fill:#000000;fill-opacity:1;fill-rule:evenodd;stroke:none"
         d="m 220.39,260.91 7.3,2.09 -7.3,2.09 0,-2.09"
         inkscape:connector-curvature="0" />
      <path
         id="path3274"
         style="fill:none;stroke:#000000;stroke-width:1.08000004;stroke-linecap:square;stroke-linejoin:miter;stroke-miterlimit:3.8599999;stroke-opacity:1;stroke-dasharray:none"
         d="m 219.89,263 -8.39,0"
         inkscape:connector-curvature="0" />
      <path
         id="path3276"
         style="fill:none;stroke:#000000;stroke-width:1.08000004;stroke-linecap:butt;stroke-linejoin:miter;stroke-miterlimit:3.8599999;stroke-opacity:1;stroke-dasharray:none"
         d="m 346.39,260.91 7.3,2.09 -7.3,2.09 0,-2.09 0,-2.09 z"
         inkscape:connector-curvature="0" />
      <path
         id="path3278"
         style="fill:#000000;fill-opacity:1;fill-rule:evenodd;stroke:none"
         d="m 346.39,260.91 7.3,2.09 -7.3,2.09 0,-2.09"
         inkscape:connector-curvature="0" />
      <path
         id="path3280"
         style="fill:none;stroke:#000000;stroke-width:1.08000004;stroke-linecap:square;stroke-linejoin:miter;stroke-miterlimit:3.8599999;stroke-opacity:1;stroke-dasharray:none"
         d="m 345.89,263 -17.39,0"
         inkscape:connector-curvature="0" />
      <path
         id="path3282"
         style="fill:#ffffff;fill-opacity:1;fill-rule:evenodd;stroke:#000000;stroke-width:1.55999994;stroke-linecap:butt;stroke-linejoin:miter;stroke-miterlimit:3.8599999;stroke-opacity:1;stroke-dasharray:none"
         d="m 373.5,281 36,0 0,-36 -36,0 0,36 z"
         inkscape:connector-curvature="0" />
      <text
         id="text3284"
         transform="matrix(1,0,0,-1,386.83,260.84)">
        <tspan
           id="tspan3286"
           y="0"
           x="0"
           style="font-size:12px;font-variant:normal;font-weight:normal;writing-mode:lr-tb;fill:#000000;fill-opacity:1;fill-rule:nonzero;stroke:none;font-family:Helvetica;-inkscape-font-specification:Helvetica">Q</tspan>
      </text>
      <path
         id="path3288"
         style="fill:none;stroke:#000000;stroke-width:1.08000004;stroke-linecap:butt;stroke-linejoin:miter;stroke-miterlimit:3.8599999;stroke-opacity:1;stroke-dasharray:none"
         d="m 422.89,260.91 7.3,2.09 -7.3,2.09 0,-2.09 0,-2.09 z"
         inkscape:connector-curvature="0" />
      <path
         id="path3290"
         style="fill:#000000;fill-opacity:1;fill-rule:evenodd;stroke:none"
         d="m 422.89,260.91 7.3,2.09 -7.3,2.09 0,-2.09"
         inkscape:connector-curvature="0" />
      <path
         id="path3292"
         style="fill:#ffffff;fill-opacity:1;fill-rule:evenodd;stroke:#000000;stroke-width:1.08000004;stroke-linecap:square;stroke-linejoin:miter;stroke-miterlimit:3.8599999;stroke-opacity:1;stroke-dasharray:none"
         d="m 422.39,263 -12.89,0"
         inkscape:connector-curvature="0" />
      <path
         id="path3294"
         style="fill:none;stroke:#000000;stroke-width:1.08000004;stroke-linecap:butt;stroke-linejoin:miter;stroke-miterlimit:3.8599999;stroke-opacity:1;stroke-dasharray:none"
         d="m 204.59,244.89 -2.09,7.3 -2.09,-7.3 2.09,0 2.09,0 z"
         inkscape:connector-curvature="0" />
      <path
         id="path3296"
         style="fill:#000000;fill-opacity:1;fill-rule:evenodd;stroke:none"
         d="m 204.59,244.89 -2.09,7.3 -2.09,-7.3 2.09,0"
         inkscape:connector-curvature="0" />
      <path
         id="path3298"
         style="fill:#ffffff;fill-opacity:1;fill-rule:evenodd;stroke:#000000;stroke-width:1.08000004;stroke-linecap:square;stroke-linejoin:miter;stroke-miterlimit:3.8599999;stroke-opacity:1;stroke-dasharray:none"
         d="m 202.5,244.39 0,-17.39"
         inkscape:connector-curvature="0" />
      <path
         id="path3300"
         style="fill:none;stroke:#000000;stroke-width:1.08000004;stroke-linecap:butt;stroke-linejoin:miter;stroke-miterlimit:3.8599999;stroke-opacity:1;stroke-dasharray:none"
         d="m 387.11,229.09 -7.3,-2.09 7.3,-2.09 0,2.09 0,2.09 z"
         inkscape:connector-curvature="0" />
      <path
         id="path3302"
         style="fill:#000000;fill-opacity:1;fill-rule:evenodd;stroke:none"
         d="m 387.11,229.09 -7.3,-2.09 7.3,-2.09 0,2.09"
         inkscape:connector-curvature="0" />
      <path
         id="path3304"
         style="fill:none;stroke:#000000;stroke-width:1.08000004;stroke-linecap:square;stroke-linejoin:miter;stroke-miterlimit:3.8599999;stroke-opacity:1;stroke-dasharray:none"
         d="m 387.61,227 30.89,0 0,36"
         inkscape:connector-curvature="0" />
      <text
         id="text3306"
         transform="matrix(0.97814227,0,-0.20793675,-0.97814227,163.85,260.05)">
        <tspan
           id="tspan3308"
           y="0"
           x="0"
           style="font-size:12.26815414px;font-variant:normal;font-weight:normal;writing-mode:lr-tb;fill:#000000;fill-opacity:1;fill-rule:nonzero;stroke:none;font-family:Helvetica;-inkscape-font-specification:Helvetica">u</tspan>
      </text>
      <text
         id="text3310"
         transform="matrix(0.97813813,0,-0.20795624,-0.97813813,170.53,257.05)">
        <tspan
           id="tspan3312"
           y="0"
           x="0"
           style="font-size:9.8145647px;font-variant:normal;font-weight:normal;writing-mode:lr-tb;fill:#000000;fill-opacity:1;fill-rule:nonzero;stroke:none;font-family:Helvetica;-inkscape-font-specification:Helvetica">c</tspan>
      </text>
      <text
         id="text3314"
         transform="matrix(0.97814227,0,-0.20793675,-0.97814227,431.45,260.05)">
        <tspan
           id="tspan3316"
           y="0"
           x="0"
           style="font-size:12.26815414px;font-variant:normal;font-weight:normal;writing-mode:lr-tb;fill:#000000;fill-opacity:1;fill-rule:nonzero;stroke:none;font-family:Helvetica;-inkscape-font-specification:Helvetica">v</tspan>
      </text>
      <path
         id="path3318"
         style="fill:#ffffff;fill-opacity:1;fill-rule:evenodd;stroke:#000000;stroke-width:1.55999994;stroke-linecap:butt;stroke-linejoin:miter;stroke-miterlimit:3.8599999;stroke-opacity:1;stroke-dasharray:none"
         d="m 229.5,281 36,0 0,-36 -36,0 0,36 z"
         inkscape:connector-curvature="0" />
      <text
         id="text3320"
         transform="matrix(1,0,0,-1,244.21,254.03)">
        <tspan
           id="tspan3322"
           y="0"
           x="0"
           style="font-size:24px;font-variant:normal;font-weight:normal;writing-mode:lr-tb;fill:#000000;fill-opacity:1;fill-rule:nonzero;stroke:none;font-family:Symbol;-inkscape-font-specification:Symbol">∫</tspan>
      </text>
      <path
         id="path3324"
         style="fill:#000000;fill-opacity:1;fill-rule:nonzero;stroke:none"
         d="m 418.5,263 0,1.8 c -0.994,0 -1.8,-0.806 -1.8,-1.8 0,-0.994 0.806,-1.8 1.8,-1.8 0.994,0 1.8,0.806 1.8,1.8 0,0.994 -0.806,1.8 -1.8,1.8"
         inkscape:connector-curvature="0" />
      <path
         id="path3326"
         style="fill:none;stroke:#000000;stroke-width:1.55999994;stroke-linecap:butt;stroke-linejoin:miter;stroke-miterlimit:3.8599999;stroke-opacity:1;stroke-dasharray:none"
         d="m 418.5,264.84 c -0.994,0 -1.8,-0.806 -1.8,-1.8 0,-0.994 0.806,-1.8 1.8,-1.8 0.994,0 1.8,0.806 1.8,1.8 0,0.994 -0.806,1.8 -1.8,1.8 z"
         inkscape:connector-curvature="0" />
      <path
         id="path3328"
         style="fill:none;stroke:#000000;stroke-width:1.08000004;stroke-linecap:butt;stroke-linejoin:miter;stroke-miterlimit:3.8599999;stroke-opacity:1;stroke-dasharray:none"
         d="m 310.39,260.91 7.3,2.09 -7.3,2.09 0,-2.09 0,-2.09 z"
         inkscape:connector-curvature="0" />
      <path
         id="path3330"
         style="fill:#000000;fill-opacity:1;fill-rule:evenodd;stroke:none"
         d="m 310.39,260.91 7.3,2.09 -7.3,2.09 0,-2.09"
         inkscape:connector-curvature="0" />
      <path
         id="path3332"
         style="fill:none;stroke:#000000;stroke-width:1.08000004;stroke-linecap:square;stroke-linejoin:miter;stroke-miterlimit:3.8599999;stroke-opacity:1;stroke-dasharray:none"
         d="m 309.89,263 -8.39,0"
         inkscape:connector-curvature="0" />
      <path
         id="path3334"
         style="fill:none;stroke:#000000;stroke-width:1.08000004;stroke-linecap:butt;stroke-linejoin:miter;stroke-miterlimit:3.8599999;stroke-opacity:1;stroke-dasharray:none"
         d="m 294.59,244.89 -2.09,7.3 -2.09,-7.3 2.09,0 2.09,0 z"
         inkscape:connector-curvature="0" />
      <path
         id="path3336"
         style="fill:#000000;fill-opacity:1;fill-rule:evenodd;stroke:none"
         d="m 294.59,244.89 -2.09,7.3 -2.09,-7.3 2.09,0"
         inkscape:connector-curvature="0" />
      <path
         id="path3338"
         style="fill:#ffffff;fill-opacity:1;fill-rule:evenodd;stroke:#000000;stroke-width:1.08000004;stroke-linecap:square;stroke-linejoin:miter;stroke-miterlimit:3.8599999;stroke-opacity:1;stroke-dasharray:none"
         d="m 292.5,244.39 0,-17.39"
         inkscape:connector-curvature="0" />
      <path
         id="path3340"
         style="fill:#ffffff;fill-opacity:1;fill-rule:evenodd;stroke:#000000;stroke-width:1.55999994;stroke-linecap:butt;stroke-linejoin:miter;stroke-miterlimit:3.8599999;stroke-opacity:1;stroke-dasharray:none"
         d="m 319.5,281 36,0 0,-36 -36,0 0,36 z"
         inkscape:connector-curvature="0" />
      <text
         id="text3342"
         transform="matrix(1,0,0,-1,334.21,254.03)">
        <tspan
           id="tspan3344"
           y="0"
           x="0"
           style="font-size:24px;font-variant:normal;font-weight:normal;writing-mode:lr-tb;fill:#000000;fill-opacity:1;fill-rule:nonzero;stroke:none;font-family:Symbol;-inkscape-font-specification:Symbol">∫</tspan>
      </text>
      <path
         id="path3346"
         style="fill:none;stroke:#000000;stroke-width:1.08000004;stroke-linecap:butt;stroke-linejoin:miter;stroke-miterlimit:3.8599999;stroke-opacity:1;stroke-dasharray:none"
         d="m 274.39,260.91 7.3,2.09 -7.3,2.09 0,-2.09 0,-2.09 z"
         inkscape:connector-curvature="0" />
      <path
         id="path3348"
         style="fill:#000000;fill-opacity:1;fill-rule:evenodd;stroke:none"
         d="m 274.39,260.91 7.3,2.09 -7.3,2.09 0,-2.09"
         inkscape:connector-curvature="0" />
      <path
         id="path3350"
         style="fill:none;stroke:#000000;stroke-width:1.08000004;stroke-linecap:square;stroke-linejoin:miter;stroke-miterlimit:3.8599999;stroke-opacity:1;stroke-dasharray:none"
         d="m 273.89,263 -8.39,0"
         inkscape:connector-curvature="0" />
      <path
         id="path3352"
         style="fill:none;stroke:#000000;stroke-width:1.08000004;stroke-linecap:butt;stroke-linejoin:miter;stroke-miterlimit:3.8599999;stroke-opacity:1;stroke-dasharray:none"
         d="m 364.39,260.91 7.3,2.09 -7.3,2.09 0,-2.09 0,-2.09 z"
         inkscape:connector-curvature="0" />
      <path
         id="path3354"
         style="fill:#000000;fill-opacity:1;fill-rule:evenodd;stroke:none"
         d="m 364.39,260.91 7.3,2.09 -7.3,2.09 0,-2.09"
         inkscape:connector-curvature="0" />
      <path
         id="path3356"
         style="fill:none;stroke:#000000;stroke-width:1.08000004;stroke-linecap:square;stroke-linejoin:miter;stroke-miterlimit:3.8599999;stroke-opacity:1;stroke-dasharray:none"
         d="m 363.89,263 -8.39,0"
         inkscape:connector-curvature="0" />
      <path
         id="path3358"
         style="fill:#000000;fill-opacity:1;fill-rule:nonzero;stroke:none"
         d="m 292.5,227 0,1.8 c -0.994,0 -1.8,-0.806 -1.8,-1.8 0,-0.994 0.806,-1.8 1.8,-1.8 0.994,0 1.8,0.806 1.8,1.8 0,0.994 -0.806,1.8 -1.8,1.8"
         inkscape:connector-curvature="0" />
      <path
         id="path3360"
         style="fill:none;stroke:#000000;stroke-width:1.55999994;stroke-linecap:butt;stroke-linejoin:miter;stroke-miterlimit:3.8599999;stroke-opacity:1;stroke-dasharray:none"
         d="m 292.5,228.84 c -0.994,0 -1.8,-0.806 -1.8,-1.8 0,-0.994 0.806,-1.8 1.8,-1.8 0.994,0 1.8,0.806 1.8,1.8 0,0.994 -0.806,1.8 -1.8,1.8 z"
         inkscape:connector-curvature="0" />
      <text
         id="text3362"
         transform="matrix(1,0,0,-1,377.44,252.17)">
        <tspan
           id="tspan3364"
           sodipodi:role="line"
           y="0"
           x="0 2.3310001 5.8309999 7.3850002 11.277 14.637 17.997 21.889 25.781"
           style="font-size:7px;font-variant:normal;font-weight:normal;writing-mode:lr-tb;fill:#000000;fill-opacity:1;fill-rule:nonzero;stroke:none;font-family:Helvetica;-inkscape-font-specification:Helvetica">(clocked)</tspan>
      </text>
      <text
         id="text3366"
         transform="matrix(1,0,0,-1,453.91,268.17)">
        <tspan
           id="tspan3368"
           y="0"
           x="0"
           style="font-size:12px;font-style:italic;font-variant:normal;writing-mode:lr-tb;fill:#000000;fill-opacity:1;fill-rule:nonzero;stroke:none;font-family:Times New Roman;-inkscape-font-specification:Times-Italic">x</tspan>
      </text>
      <text
         id="text3370"
         transform="matrix(1,0,0,-1,459.73,264.57)">
        <tspan
           id="tspan3372"
           y="0"
           x="0"
           style="font-size:9px;font-variant:normal;font-weight:normal;writing-mode:lr-tb;fill:#000000;fill-opacity:1;fill-rule:nonzero;stroke:none;font-family:Times New Roman;-inkscape-font-specification:Times-Roman">1</tspan>
      </text>
      <text
         id="text3374"
         transform="matrix(1,0,0,-1,464.7601,264.57)">
        <tspan
           id="tspan3376"
           y="0"
           x="0"
           style="font-size:9px;font-style:italic;font-variant:normal;writing-mode:lr-tb;fill:#000000;fill-opacity:1;fill-rule:nonzero;stroke:none;font-family:Times New Roman;-inkscape-font-specification:Times-Italic">c</tspan>
      </text>
      <text
         id="text3378"
         transform="matrix(1,0,0,-1,459.18,271.77)">
        <tspan
           id="tspan3380"
           y="0"
           x="0"
           style="font-size:12px;font-variant:normal;font-weight:normal;writing-mode:lr-tb;fill:#000000;fill-opacity:1;fill-rule:nonzero;stroke:none;font-family:Times New Roman;-inkscape-font-specification:Times-Roman">˙</tspan>
      </text>
      <text
         id="text3382"
         transform="matrix(1,0,0,-1,453.9096,244.92)">
        <tspan
           id="tspan3384"
           y="0"
           x="0"
           style="font-size:12px;font-style:italic;font-variant:normal;writing-mode:lr-tb;fill:#000000;fill-opacity:1;fill-rule:nonzero;stroke:none;font-family:Times New Roman;-inkscape-font-specification:Times-Italic">x</tspan>
      </text>
      <text
         id="text3386"
         transform="matrix(1,0,0,-1,459.73,241.32)">
        <tspan
           id="tspan3388"
           y="0"
           x="0"
           style="font-size:9px;font-variant:normal;font-weight:normal;writing-mode:lr-tb;fill:#000000;fill-opacity:1;fill-rule:nonzero;stroke:none;font-family:Times New Roman;-inkscape-font-specification:Times-Roman">2</tspan>
      </text>
      <text
         id="text3390"
         transform="matrix(1,0,0,-1,464.7601,241.32)">
        <tspan
           id="tspan3392"
           y="0"
           x="0"
           style="font-size:9px;font-style:italic;font-variant:normal;writing-mode:lr-tb;fill:#000000;fill-opacity:1;fill-rule:nonzero;stroke:none;font-family:Times New Roman;-inkscape-font-specification:Times-Italic">c</tspan>
      </text>
      <text
         id="text3394"
         transform="matrix(1,0,0,-1,459.18,248.52)">
        <tspan
           id="tspan3396"
           y="0"
           x="0"
           style="font-size:12px;font-variant:normal;font-weight:normal;writing-mode:lr-tb;fill:#000000;fill-opacity:1;fill-rule:nonzero;stroke:none;font-family:Times New Roman;-inkscape-font-specification:Times-Roman">˙</tspan>
      </text>
      <text
         id="text3398"
         transform="matrix(1,0,0,-1,456.4296,225.2796)">
        <tspan
           id="tspan3400"
           y="0"
           x="0"
           style="font-size:12px;font-style:italic;font-variant:normal;writing-mode:lr-tb;fill:#000000;fill-opacity:1;fill-rule:nonzero;stroke:none;font-family:Times New Roman;-inkscape-font-specification:Times-Italic">y</tspan>
      </text>
      <text
         id="text3402"
         transform="matrix(1,0,0,-1,462.21,221.68)">
        <tspan
           id="tspan3404"
           y="0"
           x="0"
           style="font-size:9px;font-style:italic;font-variant:normal;writing-mode:lr-tb;fill:#000000;fill-opacity:1;fill-rule:nonzero;stroke:none;font-family:Times New Roman;-inkscape-font-specification:Times-Italic">c</tspan>
      </text>
      <text
         id="text3406"
         transform="matrix(1,0,0,-1,504.84,268.39)">
        <tspan
           id="tspan3408"
           sodipodi:role="line"
           y="0"
           x="0 26.256001 52.512001 81.996002 75.540001"
           style="font-size:12px;font-variant:normal;font-weight:normal;writing-mode:lr-tb;fill:#000000;fill-opacity:1;fill-rule:nonzero;stroke:none;font-family:Times New Roman;-inkscape-font-specification:Times-Roman">0011–</tspan>
        <tspan
           id="tspan3410"
           sodipodi:role="line"
           y="22.7904"
           x="0 26.256001 52.512001 77.496002 83.496002 86.496002 71.040001"
           style="font-size:12px;font-variant:normal;font-weight:normal;writing-mode:lr-tb;fill:#000000;fill-opacity:1;fill-rule:nonzero;stroke:none;font-family:Times New Roman;-inkscape-font-specification:Times-Roman">1001.5–</tspan>
        <tspan
           id="tspan3412"
           sodipodi:role="line"
           y="45.590401"
           x="0 26.256001 52.512001 78.767998"
           style="font-size:12px;font-variant:normal;font-weight:normal;writing-mode:lr-tb;fill:#000000;fill-opacity:1;fill-rule:nonzero;stroke:none;font-family:Times New Roman;-inkscape-font-specification:Times-Roman">0100</tspan>
      </text>
      <text
         id="text3414"
         transform="matrix(1,0,0,-1,607.9596,277.99)">
        <tspan
           id="tspan3416"
           y="0"
           x="0"
           style="font-size:12px;font-style:italic;font-variant:normal;writing-mode:lr-tb;fill:#000000;fill-opacity:1;fill-rule:nonzero;stroke:none;font-family:Times New Roman;-inkscape-font-specification:Times-Italic">x</tspan>
      </text>
      <text
         id="text3418"
         transform="matrix(1,0,0,-1,613.78,274.39)">
        <tspan
           id="tspan3420"
           y="0"
           x="0"
           style="font-size:9px;font-variant:normal;font-weight:normal;writing-mode:lr-tb;fill:#000000;fill-opacity:1;fill-rule:nonzero;stroke:none;font-family:Times New Roman;-inkscape-font-specification:Times-Roman">1</tspan>
      </text>
      <text
         id="text3422"
         transform="matrix(1,0,0,-1,618.8101,274.39)">
        <tspan
           id="tspan3424"
           y="0"
           x="0"
           style="font-size:9px;font-style:italic;font-variant:normal;writing-mode:lr-tb;fill:#000000;fill-opacity:1;fill-rule:nonzero;stroke:none;font-family:Times New Roman;-inkscape-font-specification:Times-Italic">c</tspan>
      </text>
      <text
         id="text3426"
         transform="matrix(1,0,0,-1,613.22,281.59)">
        <tspan
           id="tspan3428"
           y="0"
           x="0"
           style="font-size:12px;font-variant:normal;font-weight:normal;writing-mode:lr-tb;fill:#000000;fill-opacity:1;fill-rule:nonzero;stroke:none;font-family:Times New Roman;-inkscape-font-specification:Times-Roman" />
      </text>
      <text
         id="text3430"
         transform="matrix(1,0,0,-1,607.9604,254.7496)">
        <tspan
           id="tspan3432"
           y="0"
           x="0"
           style="font-size:12px;font-style:italic;font-variant:normal;writing-mode:lr-tb;fill:#000000;fill-opacity:1;fill-rule:nonzero;stroke:none;font-family:Times New Roman;-inkscape-font-specification:Times-Italic">x</tspan>
      </text>
      <text
         id="text3434"
         transform="matrix(1,0,0,-1,613.78,251.15)">
        <tspan
           id="tspan3436"
           y="0"
           x="0"
           style="font-size:9px;font-variant:normal;font-weight:normal;writing-mode:lr-tb;fill:#000000;fill-opacity:1;fill-rule:nonzero;stroke:none;font-family:Times New Roman;-inkscape-font-specification:Times-Roman">2</tspan>
      </text>
      <text
         id="text3438"
         transform="matrix(1,0,0,-1,618.8101,251.15)">
        <tspan
           id="tspan3440"
           y="0"
           x="0"
           style="font-size:9px;font-style:italic;font-variant:normal;writing-mode:lr-tb;fill:#000000;fill-opacity:1;fill-rule:nonzero;stroke:none;font-family:Times New Roman;-inkscape-font-specification:Times-Italic">c</tspan>
      </text>
      <text
         id="text3442"
         transform="matrix(1,0,0,-1,613.22,258.34)">
        <tspan
           id="tspan3444"
           y="0"
           x="0"
           style="font-size:12px;font-variant:normal;font-weight:normal;writing-mode:lr-tb;fill:#000000;fill-opacity:1;fill-rule:nonzero;stroke:none;font-family:Times New Roman;-inkscape-font-specification:Times-Roman" />
      </text>
      <text
         id="text3446"
         transform="matrix(1,0,0,-1,609.9896,235.0996)">
        <tspan
           id="tspan3448"
           y="0"
           x="0"
           style="font-size:12px;font-style:italic;font-variant:normal;writing-mode:lr-tb;fill:#000000;fill-opacity:1;fill-rule:nonzero;stroke:none;font-family:Times New Roman;-inkscape-font-specification:Times-Italic">u</tspan>
      </text>
      <text
         id="text3450"
         transform="matrix(1,0,0,-1,616.45,231.5)">
        <tspan
           id="tspan3452"
           y="0"
           x="0"
           style="font-size:9px;font-style:italic;font-variant:normal;writing-mode:lr-tb;fill:#000000;fill-opacity:1;fill-rule:nonzero;stroke:none;font-family:Times New Roman;-inkscape-font-specification:Times-Italic">c</tspan>
      </text>
      <text
         id="text3454"
         transform="matrix(1,0,0,-1,610.33,215.45)">
        <tspan
           id="tspan3456"
           y="0"
           x="0"
           style="font-size:12px;font-style:italic;font-variant:normal;writing-mode:lr-tb;fill:#000000;fill-opacity:1;fill-rule:nonzero;stroke:none;font-family:Times New Roman;-inkscape-font-specification:Times-Italic">v</tspan>
      </text>
      <text
         id="text3458"
         transform="matrix(1,0,0,-1,616.11,211.85)">
        <tspan
           id="tspan3460"
           y="0"
           x="0"
           style="font-size:9px;font-style:italic;font-variant:normal;writing-mode:lr-tb;fill:#000000;fill-opacity:1;fill-rule:nonzero;stroke:none;font-family:Times New Roman;-inkscape-font-specification:Times-Italic">c</tspan>
      </text>
      <text
         id="text3462"
         transform="matrix(1,0,0,-1,479.01,249.9)">
        <tspan
           id="tspan3464"
           y="0"
           x="0"
           style="font-size:12px;font-variant:normal;font-weight:normal;writing-mode:lr-tb;fill:#000000;fill-opacity:1;fill-rule:nonzero;stroke:none;font-family:Times New Roman;-inkscape-font-specification:Times-Roman">=</tspan>
      </text>
      <path
         id="path3466"
         style="fill:none;stroke:#000000;stroke-width:0.60000002;stroke-linecap:square;stroke-linejoin:miter;stroke-miterlimit:3.8599999;stroke-opacity:1;stroke-dasharray:none"
         d="m 450.65,285.56 0,-66.13 3.6,0 m 0,66.13 -3.6,0 m 19.97,0 0,-66.13 -3.6,0 m 0,66.13 3.6,0 m 23.56,1.13 0,-68.39 3.59,0 m 0,68.39 -3.59,0 m 105.01,0 0,-68.39 -3.6,0 m 0,68.39 3.6,0 m 5.5,8.7 0,-85.79 3.6,0 m 0,85.79 -3.6,0 m 19.97,0 0,-85.79 -3.6,0 m 0,85.79 3.6,0"
         inkscape:connector-curvature="0" />
      <path
         id="path3468"
         style="fill:#ffffff;stroke:#000000;stroke-width:1.55999993999999997;stroke-linecap:butt;stroke-linejoin:miter;stroke-miterlimit:3.85999990000000004;stroke-opacity:1;stroke-dasharray:none;fill-opacity:1"
         d="m 355.5,218 22.5,0 0,18 -22.5,0 -9,-9 9,-9 z"
         inkscape:connector-curvature="0" />
      <path
         id="path3470"
         style="fill:none;stroke:#000000;stroke-width:1.08000004;stroke-linecap:square;stroke-linejoin:miter;stroke-miterlimit:3.8599999;stroke-opacity:1;stroke-dasharray:none"
         d="m 202.5,227 144,0"
         inkscape:connector-curvature="0" />
      <text
         id="text3472"
         transform="matrix(1,0,0,-1,352.77,223.23)">
        <tspan
           id="tspan3474"
           sodipodi:role="line"
           y="0"
           x="0 7.5019999 14.509"
           style="font-size:11px;font-variant:normal;font-weight:normal;writing-mode:lr-tb;fill:#000000;fill-opacity:1;fill-rule:nonzero;stroke:none;font-family:Helvetica;-inkscape-font-specification:Helvetica">DAC</tspan>
      </text>
      <path
         id="path3476"
         style="fill:#ffffff;stroke:#000000;stroke-width:1.55999993999999997;stroke-linecap:butt;stroke-linejoin:miter;stroke-miterlimit:3.85999990000000004;stroke-opacity:1;stroke-dasharray:none;fill-opacity:1"
         d="m 292.5,272.04 c -4.968,0 -9,-4.032 -9,-9 0,-4.968 4.032,-9 9,-9 4.968,0 9,4.032 9,9 0,4.968 -4.032,9 -9,9 z"
         inkscape:connector-curvature="0" />
      <path
         id="path3478"
         style="fill:none;stroke:#000000;stroke-width:1.08000004;stroke-linecap:square;stroke-linejoin:miter;stroke-miterlimit:3.8599999;stroke-opacity:1;stroke-dasharray:none"
         d="m 297,263 -9,0 m 4.5,-4.5 0,9"
         inkscape:connector-curvature="0" />
      <path
         id="path3480"
         style="fill:none;stroke:#000000;stroke-width:0.60000002;stroke-linecap:square;stroke-linejoin:miter;stroke-miterlimit:3.8599999;stroke-opacity:1;stroke-dasharray:none"
         d="m 546.58,219.53 0,67.5 m 49.5,-53.07 -99,0"
         inkscape:connector-curvature="0" />
      <text
         id="text3482"
         transform="matrix(0.97814227,0,-0.20793675,-0.97814227,326.36,231.99)">
        <tspan
           id="tspan3484"
           y="0"
           x="0"
           style="font-size:12.26815414px;font-variant:normal;font-weight:normal;writing-mode:lr-tb;fill:#000000;fill-opacity:1;fill-rule:nonzero;stroke:none;font-family:Helvetica;-inkscape-font-specification:Helvetica">v</tspan>
      </text>
      <text
         id="text3486"
         transform="matrix(0.97813813,0,-0.20795624,-0.97813813,332.36,228.99)">
        <tspan
           id="tspan3488"
           y="0"
           x="0"
           style="font-size:9.8145647px;font-variant:normal;font-weight:normal;writing-mode:lr-tb;fill:#000000;fill-opacity:1;fill-rule:nonzero;stroke:none;font-family:Helvetica;-inkscape-font-specification:Helvetica">c</tspan>
      </text>
    </g>
  </g>
</svg>
